<svg height="512pt" viewBox="0 0 512 512" width="512pt" xmlns="http://www.w3.org/2000/svg" xmlns:xlink="http://www.w3.org/1999/xlink"><linearGradient id="a" gradientUnits="userSpaceOnUse" x1="0" x2="512" y1="256" y2="256"><stop offset="0" stop-color="#00f38d"/><stop offset="1" stop-color="#009eff"/></linearGradient><path d="m512 256c0 141.386719-114.613281 256-256 256s-256-114.613281-256-256 114.613281-256 256-256 256 114.613281 256 256zm0 0" fill="url(#a)"/><g fill="#fff"><path d="m353.390625 171.066406c0-53.984375-43.921875-97.90625-97.90625-97.90625s-97.902344 43.921875-97.902344 97.90625c0 32.058594 15.488281 60.570313 39.375 78.4375-63.78125 23.804688-109.328125 85.339844-109.328125 157.320313h30c0-76.011719 61.84375-137.851563 137.855469-137.851563 53.984375 0 97.90625-43.921875 97.90625-97.90625zm-97.90625 67.90625c-37.441406 0-67.90625-30.464844-67.90625-67.90625s30.464844-67.902344 67.90625-67.902344 67.902344 30.460938 67.902344 67.902344-30.460938 67.90625-67.902344 67.90625zm0 0"/><path d="m361.949219 251.136719-21.214844 21.214843 25.5625 25.558594h-16.234375c-46.445312 0-84.257812 37.785156-84.296875 84.230469l-.023437 24.671875 30 .027344.023437-24.675782c.023437-29.914062 24.382813-54.253906 54.296875-54.253906h17.53125l-26.859375 26.855469 21.214844 21.214844 62.421875-62.421875zm0 0"/></g></svg>